<svg width="11" height="14" viewBox="0 0 11 14" fill="none" xmlns="http://www.w3.org/2000/svg">
<path d="M7.65078 12H2.94261C2.47435 12 2.02527 11.7893 1.69416 11.4142C1.36306 11.0391 1.17704 10.5304 1.17704 10V3.33333C1.17704 3.15652 1.11504 2.98695 1.00467 2.86193C0.894299 2.7369 0.744607 2.66667 0.588521 2.66667C0.432436 2.66667 0.282743 2.7369 0.172374 2.86193C0.0620047 2.98695 0 3.15652 0 3.33333V10C0 10.8841 0.310024 11.7319 0.861869 12.357C1.41372 12.9821 2.16218 13.3333 2.94261 13.3333H7.65078C7.80686 13.3333 7.95655 13.2631 8.06692 13.1381C8.17729 13.013 8.2393 12.8435 8.2393 12.6667C8.2393 12.4899 8.17729 12.3203 8.06692 12.1953C7.95655 12.0702 7.80686 12 7.65078 12ZM10.5934 4.62667C10.5873 4.56542 10.5754 4.50509 10.5581 4.44667V4.38667C10.5298 4.31812 10.492 4.25511 10.4463 4.2L6.91512 0.2C6.86647 0.148144 6.81085 0.105387 6.75034 0.0733333H6.69737L6.50905 0H4.11965C3.65139 0 3.20231 0.210714 2.87121 0.585786C2.5401 0.960859 2.35408 1.46957 2.35408 2V8.66667C2.35408 9.1971 2.5401 9.70581 2.87121 10.0809C3.20231 10.456 3.65139 10.6667 4.11965 10.6667H8.82782C9.29607 10.6667 9.74515 10.456 10.0763 10.0809C10.4074 9.70581 10.5934 9.1971 10.5934 8.66667V4.66667C10.5934 4.66667 10.5934 4.66667 10.5934 4.62667ZM7.06225 2.27333L8.58652 4H7.65078C7.49469 4 7.345 3.92976 7.23463 3.80474C7.12426 3.67971 7.06225 3.51014 7.06225 3.33333V2.27333ZM9.41634 8.66667C9.41634 8.84348 9.35434 9.01305 9.24397 9.13807C9.1336 9.26309 8.9839 9.33333 8.82782 9.33333H4.11965C3.96356 9.33333 3.81387 9.26309 3.7035 9.13807C3.59313 9.01305 3.53113 8.84348 3.53113 8.66667V2C3.53113 1.82319 3.59313 1.65362 3.7035 1.5286C3.81387 1.40357 3.96356 1.33333 4.11965 1.33333H5.88521V3.33333C5.88521 3.86377 6.07123 4.37247 6.40233 4.74755C6.73344 5.12262 7.18252 5.33333 7.65078 5.33333H9.41634V8.66667Z" fill="#2C2D33"/>
</svg>
